<svg xmlns="http://www.w3.org/2000/svg" viewBox="3214 5041 10.924 17">
  <defs>
    <style>
      .cls-1 {
        fill: #858a9f;
      }
    </style>
  </defs>
  <path id="Path_518" data-name="Path 518" class="cls-1" d="M10.438,12.91a.5.5,0,0,0-.489.506v2.569H1.012V12.776A2.988,2.988,0,0,1,3.1,9.768a3.98,3.98,0,0,0,2.094.59A4.021,4.021,0,0,0,9.208,6.341V5.7c0-.027.01-.054.013-.077l.01-.07a4.8,4.8,0,0,1,.161-.6,3.75,3.75,0,0,0,.234-1.126A3.155,3.155,0,0,0,9.5,2.837,2.056,2.056,0,0,0,7.52,1.219a2.681,2.681,0,0,0-.348.027A3.08,3.08,0,0,0,5.249,0H5.182a.45.45,0,0,0-.117.017,1.138,1.138,0,0,0-.332.111,7.779,7.779,0,0,1-2.248.955,2.554,2.554,0,0,0-.362.1c-.117.04-.221.077-.315.107-.459.154-.737.248-.914.516a1.362,1.362,0,0,0-.07,1.038c.164,1,.281,1.963.355,2.871v.63A3.993,3.993,0,0,0,2.214,9.028,4.1,4.1,0,0,0,0,12.776v3.718A.508.508,0,0,0,.506,17h9.929a.5.5,0,0,0,.489-.506V13.419A.5.5,0,0,0,10.438,12.91ZM2.12,4.9c-.074-.717-.174-1.464-.3-2.224-.017-.1-.037-.221-.047-.308.087-.033.221-.08.355-.124.1-.033.2-.067.325-.111A2.12,2.12,0,0,1,2.7,2.073,8.727,8.727,0,0,0,5.212,1.018s.007,0,.02-.007h.01c.295,0,.941.586,1.333,1.109a.494.494,0,0,0,.593.167,1.132,1.132,0,0,1,.355-.057c.476,0,.811.3,1.025.931a2.208,2.208,0,0,1,.067.667,1.028,1.028,0,0,1-.023.218C8.237,3.41,7.838,3.1,7.386,3.1a1,1,0,0,0-.593.2,10.958,10.958,0,0,1-1.5.935,14.615,14.615,0,0,0-3.149.72A.147.147,0,0,0,2.12,4.9Zm.07,1.437V6.026a13.572,13.572,0,0,1,3.239-.78A7.653,7.653,0,0,0,7.39,4.127a1.9,1.9,0,0,1,.513.811,7.685,7.685,0,0,1,.295.831v.573a3,3,0,1,1-6.006,0Z" transform="translate(3214 5041)"/>
</svg>
